<?xml version="1.0" encoding="UTF-8"?>
<svg xmlns="http://www.w3.org/2000/svg" xmlns:xlink="http://www.w3.org/1999/xlink" width="89px" height="100px" viewBox="0 0 89 100" version="1.1">
<g id="surface1">
<path style=" stroke:none;fill-rule:nonzero;fill:rgb(36.078432%,55.29412%,73.725492%);fill-opacity:1;" d="M 88.851562 29.414062 C 88.847656 27.738281 88.492188 26.253906 87.765625 24.984375 C 87.050781 23.734375 85.980469 22.683594 84.550781 21.855469 C 72.71875 15.042969 60.878906 8.253906 49.054688 1.433594 C 45.867188 -0.402344 42.777344 -0.335938 39.609375 1.527344 C 34.902344 4.300781 11.332031 17.789062 4.304688 21.851562 C 1.414062 23.523438 0.00390625 26.082031 0.00390625 29.410156 C 0 43.109375 0.00390625 56.808594 0 70.503906 C 0 72.144531 0.34375 73.597656 1.039062 74.851562 C 1.753906 76.140625 2.835938 77.214844 4.300781 78.0625 C 11.328125 82.128906 34.902344 95.613281 39.609375 98.386719 C 42.777344 100.253906 45.867188 100.320312 49.054688 98.480469 C 60.882812 91.660156 72.722656 84.871094 84.554688 78.058594 C 86.019531 77.210938 87.101562 76.136719 87.816406 74.847656 C 88.507812 73.59375 88.855469 72.140625 88.855469 70.5 C 88.855469 70.5 88.855469 43.113281 88.851562 29.414062 "/>
<path style=" stroke:none;fill-rule:nonzero;fill:rgb(10.196079%,27.450982%,45.490196%);fill-opacity:1;" d="M 44.5625 49.824219 L 1.039062 74.851562 C 1.753906 76.140625 2.835938 77.214844 4.300781 78.0625 C 11.328125 82.128906 34.902344 95.613281 39.609375 98.386719 C 42.777344 100.253906 45.867188 100.320312 49.054688 98.480469 C 60.882812 91.660156 72.722656 84.871094 84.554688 78.058594 C 86.019531 77.210938 87.101562 76.136719 87.816406 74.847656 L 44.5625 49.824219 "/>
<path style=" stroke:none;fill-rule:nonzero;fill:rgb(10.196079%,27.450982%,45.490196%);fill-opacity:1;" d="M 31.671875 57.238281 C 34.203125 61.652344 38.964844 64.632812 44.425781 64.632812 C 49.921875 64.632812 54.710938 61.617188 57.230469 57.152344 L 44.5625 49.824219 L 31.671875 57.238281 "/>
<path style=" stroke:none;fill-rule:nonzero;fill:rgb(10.588235%,34.901962%,55.686277%);fill-opacity:1;" d="M 88.851562 29.414062 C 88.847656 27.738281 88.492188 26.253906 87.765625 24.984375 L 44.5625 49.824219 L 87.816406 74.847656 C 88.507812 73.59375 88.855469 72.140625 88.855469 70.5 C 88.855469 70.5 88.855469 43.113281 88.851562 29.414062 "/>
<path style=" stroke:none;fill-rule:nonzero;fill:rgb(100%,100%,100%);fill-opacity:1;" d="M 86.472656 51.613281 L 83.09375 51.613281 L 83.09375 54.988281 L 79.710938 54.988281 L 79.710938 51.613281 L 76.332031 51.613281 L 76.332031 48.238281 L 79.710938 48.238281 L 79.710938 44.863281 L 83.09375 44.863281 L 83.09375 48.238281 L 86.472656 48.238281 L 86.472656 51.613281 M 74.140625 51.613281 L 70.757812 51.613281 L 70.757812 54.988281 L 67.378906 54.988281 L 67.378906 51.613281 L 64 51.613281 L 64 48.238281 L 67.378906 48.238281 L 67.378906 44.863281 L 70.757812 44.863281 L 70.757812 48.238281 L 74.140625 48.238281 L 74.140625 51.613281 "/>
<path style=" stroke:none;fill-rule:nonzero;fill:rgb(100%,100%,100%);fill-opacity:1;" d="M 57.230469 57.152344 C 54.710938 61.617188 49.921875 64.632812 44.425781 64.632812 C 38.964844 64.632812 34.203125 61.652344 31.671875 57.238281 C 30.398438 55.023438 29.730469 52.511719 29.734375 49.957031 C 29.734375 41.855469 36.3125 35.285156 44.425781 35.285156 C 49.855469 35.285156 54.589844 38.226562 57.136719 42.597656 L 69.976562 35.210938 C 64.875 26.410156 55.34375 20.492188 44.425781 20.492188 C 28.128906 20.492188 14.921875 33.683594 14.921875 49.957031 C 14.921875 55.296875 16.34375 60.304688 18.828125 64.621094 C 23.917969 73.46875 33.476562 79.425781 44.425781 79.425781 C 55.398438 79.425781 64.96875 73.445312 70.054688 64.574219 L 57.230469 57.152344 "/>
</g>
</svg>
