<?xml version="1.0" encoding="UTF-8"?>
<svg xmlns="http://www.w3.org/2000/svg" xmlns:xlink="http://www.w3.org/1999/xlink" width="100px" height="100px" viewBox="0 0 100 118" version="1.1">
<g id="surface1">
<path style=" stroke:none;fill-rule:nonzero;fill:rgb(0%,26.666668%,50.980395%);fill-opacity:1;" d="M 98.585938 36.53125 C 98.625 34.839844 98.214844 33.171875 97.402344 31.6875 C 96.558594 30.25 95.34375 29.070312 93.882812 28.265625 C 80.941406 20.816406 67.996094 13.371094 55.046875 5.941406 C 51.5625 3.929688 48.179688 4.003906 44.714844 6.042969 C 39.566406 9.0625 13.777344 23.816406 6.089844 28.261719 C 2.925781 30.089844 1.386719 32.890625 1.386719 36.527344 L 1.386719 81.472656 C 1.355469 83.128906 1.746094 84.761719 2.527344 86.222656 C 3.371094 87.703125 4.609375 88.917969 6.105469 89.738281 C 13.789062 94.195312 39.585938 108.933594 44.734375 111.964844 C 48.199219 114.007812 51.578125 114.078125 55.070312 112.066406 C 68.007812 104.613281 80.953125 97.167969 93.90625 89.734375 C 95.402344 88.914062 96.640625 87.699219 97.484375 86.21875 C 98.261719 84.757812 98.65625 83.121094 98.621094 81.46875 L 98.621094 36.53125 Z M 98.585938 36.53125 "/>
<path style=" stroke:none;fill-rule:nonzero;fill:rgb(0%,34.901962%,61.176473%);fill-opacity:1;" d="M 98.597656 81.472656 C 98.628906 83.128906 98.238281 84.761719 97.457031 86.222656 C 97.265625 86.574219 97.046875 86.90625 96.808594 87.222656 L 49.988281 59 L 93.882812 28.265625 C 95.34375 29.070312 96.554688 30.25 97.398438 31.6875 C 98.214844 33.167969 98.625 34.839844 98.585938 36.53125 C 98.597656 51.515625 98.597656 81.472656 98.597656 81.472656 Z M 98.597656 81.472656 "/>
<path style=" stroke:none;fill-rule:nonzero;fill:rgb(39.607844%,60.392159%,82.352942%);fill-opacity:1;" d="M 97.398438 31.6875 L 2.515625 86.222656 C 1.738281 84.765625 1.347656 83.128906 1.382812 81.476562 L 1.382812 36.527344 C 1.382812 32.890625 2.925781 30.089844 6.085938 28.261719 C 13.777344 23.816406 39.566406 9.0625 44.722656 6.035156 C 48.175781 3.992188 51.5625 3.921875 55.046875 5.933594 C 67.984375 13.386719 80.929688 20.832031 93.882812 28.265625 C 95.34375 29.070312 96.554688 30.25 97.398438 31.6875 Z M 97.398438 31.6875 "/>
<path style=" stroke:none;fill-rule:nonzero;fill:rgb(100%,100%,100%);fill-opacity:1;" d="M 51.863281 77.15625 C 45.359375 77.164062 39.363281 73.640625 36.21875 67.957031 C 36.058594 67.679688 35.910156 67.394531 35.769531 67.101562 C 31.828125 58.984375 34.597656 49.207031 42.214844 44.34375 C 49.832031 39.480469 59.890625 41.0625 65.632812 48.03125 C 65.871094 48.316406 66.082031 48.617188 66.316406 48.921875 C 66.425781 49.070312 66.53125 49.21875 66.632812 49.371094 L 82.308594 40.363281 C 81.929688 39.75 81.527344 39.15625 81.113281 38.578125 C 80.890625 38.273438 80.664062 37.976562 80.449219 37.6875 C 69.152344 23.050781 48.515625 19.453125 32.910156 29.398438 C 17.304688 39.34375 11.910156 59.535156 20.480469 75.90625 C 20.632812 76.191406 20.789062 76.472656 20.929688 76.753906 C 27.105469 87.625 38.539062 94.472656 51.0625 94.804688 C 63.585938 95.132812 75.367188 88.898438 82.113281 78.367188 L 66.785156 69.125 C 63.484375 74.140625 57.878906 77.160156 51.863281 77.15625 Z M 51.863281 77.15625 "/>
</g>
</svg>
