<?xml version="1.0" encoding="UTF-8"?>
<svg xmlns="http://www.w3.org/2000/svg" xmlns:xlink="http://www.w3.org/1999/xlink" width="100px" height="100px" viewBox="0 0 100 114" version="1.1">
<g id="surface1">
<path style=" stroke:none;fill-rule:nonzero;fill:rgb(10.588235%,45.09804%,72.941178%);fill-opacity:1;" d="M 8.375 102.058594 L 0 0.191406 L 100 0.394531 L 91.144531 102.058594 L 50.378906 113.808594 Z M 8.375 102.058594 "/>
<path style=" stroke:none;fill-rule:nonzero;fill:rgb(10.980392%,53.333336%,78.039217%);fill-opacity:1;" d="M 50.378906 103.96875 L 50.378906 9.894531 L 91.558594 10.03125 L 84.214844 94.199219 Z M 50.378906 103.96875 "/>
<path style=" stroke:none;fill-rule:nonzero;fill:rgb(100%,100%,100%);fill-opacity:1;" d="M 81.332031 21.917969 L 17.980469 21.917969 L 19.699219 34.214844 L 49.757812 34.214844 L 20.179688 46.855469 L 21.894531 58.742188 L 65.476562 58.742188 L 63.898438 75.34375 L 49.140625 78.214844 L 35.757812 74.796875 L 34.730469 65.367188 L 22.445312 65.367188 L 24.089844 84.976562 L 50.445312 92.289062 L 75.703125 84.292969 L 78.929688 45.964844 L 52.230469 45.964844 L 81.332031 33.941406 Z M 81.332031 21.917969 "/>
</g>
</svg>
