<?xml version="1.0" encoding="UTF-8"?>
<svg xmlns="http://www.w3.org/2000/svg" xmlns:xlink="http://www.w3.org/1999/xlink" width="100px" height="100px" viewBox="0 0 100 110" version="1.1">
<g id="surface1">
<path style=" stroke:none;fill-rule:nonzero;fill:rgb(0%,56.862748%,88.627452%);fill-opacity:1;" d="M 99.027344 46.390625 C 98.75 46.160156 96.246094 44.289062 90.871094 44.289062 C 89.480469 44.289062 88.042969 44.425781 86.65625 44.65625 C 85.636719 37.664062 79.75 34.285156 79.519531 34.101562 L 78.082031 33.28125 L 77.15625 34.605469 C 75.996094 36.386719 75.117188 38.398438 74.605469 40.453125 C 73.632812 44.425781 74.234375 48.171875 76.273438 51.367188 C 73.820312 52.738281 69.832031 53.058594 69 53.105469 L 3.195312 53.105469 C 1.484375 53.105469 0.09375 54.476562 0.09375 56.164062 C 0 61.828125 0.972656 67.492188 2.964844 72.835938 C 5.234375 78.683594 8.617188 83.023438 12.976562 85.671875 C 17.886719 88.640625 25.902344 90.332031 34.941406 90.332031 C 39.019531 90.332031 43.09375 89.964844 47.125 89.234375 C 52.734375 88.230469 58.109375 86.3125 63.066406 83.523438 C 67.132812 81.203125 70.792969 78.242188 73.910156 74.753906 C 79.148438 68.953125 82.253906 62.46875 84.523438 56.714844 L 85.449219 56.714844 C 91.148438 56.714844 94.671875 54.476562 96.617188 52.554688 C 97.914062 51.367188 98.886719 49.90625 99.582031 48.261719 L 100 47.074219 Z M 99.027344 46.390625 "/>
<path style=" stroke:none;fill-rule:nonzero;fill:rgb(0%,56.862748%,88.627452%);fill-opacity:1;" d="M 9.3125 51.230469 L 18.117188 51.230469 C 18.535156 51.230469 18.90625 50.910156 18.90625 50.457031 L 18.90625 42.691406 C 18.90625 42.277344 18.582031 41.914062 18.117188 41.914062 L 9.3125 41.914062 C 8.898438 41.914062 8.527344 42.234375 8.527344 42.691406 L 8.527344 50.457031 C 8.574219 50.910156 8.898438 51.230469 9.3125 51.230469 Z M 21.457031 51.230469 L 30.257812 51.230469 C 30.675781 51.230469 31.046875 50.910156 31.046875 50.457031 L 31.046875 42.691406 C 31.046875 42.277344 30.722656 41.914062 30.257812 41.914062 L 21.453125 41.914062 C 21.039062 41.914062 20.667969 42.234375 20.667969 42.691406 L 20.667969 50.457031 C 20.714844 50.910156 21.039062 51.230469 21.453125 51.230469 M 33.828125 51.230469 L 42.632812 51.230469 C 43.050781 51.230469 43.417969 50.910156 43.417969 50.457031 L 43.417969 42.691406 C 43.417969 42.277344 43.09375 41.914062 42.632812 41.914062 L 33.828125 41.914062 C 33.410156 41.914062 33.039062 42.234375 33.039062 42.691406 L 33.039062 50.457031 C 33.039062 50.910156 33.363281 51.230469 33.828125 51.230469 Z M 46.015625 51.230469 L 54.820312 51.230469 C 55.234375 51.230469 55.605469 50.910156 55.605469 50.457031 L 55.605469 42.691406 C 55.605469 42.277344 55.28125 41.914062 54.820312 41.914062 L 46.015625 41.914062 C 45.597656 41.914062 45.226562 42.234375 45.226562 42.691406 L 45.226562 50.457031 C 45.226562 50.910156 45.597656 51.230469 46.015625 51.230469 Z M 21.457031 40.132812 L 30.257812 40.132812 C 30.675781 40.132812 31.046875 39.765625 31.046875 39.355469 L 31.046875 31.589844 C 31.046875 31.179688 30.722656 30.816406 30.257812 30.816406 L 21.453125 30.816406 C 21.039062 30.816406 20.667969 31.132812 20.667969 31.589844 L 20.667969 39.355469 C 20.714844 39.765625 21.039062 40.132812 21.453125 40.132812 M 33.828125 40.132812 L 42.632812 40.132812 C 43.050781 40.132812 43.417969 39.765625 43.417969 39.355469 L 43.417969 31.589844 C 43.417969 31.179688 43.09375 30.816406 42.632812 30.816406 L 33.828125 30.816406 C 33.410156 30.816406 33.039062 31.132812 33.039062 31.589844 L 33.039062 39.355469 C 33.039062 39.765625 33.363281 40.132812 33.828125 40.132812 M 46.015625 40.132812 L 54.820312 40.132812 C 55.234375 40.132812 55.605469 39.765625 55.605469 39.355469 L 55.605469 31.589844 C 55.605469 31.179688 55.234375 30.816406 54.820312 30.816406 L 46.015625 30.816406 C 45.597656 30.816406 45.226562 31.132812 45.226562 31.589844 L 45.226562 39.355469 C 45.226562 39.765625 45.597656 40.132812 46.015625 40.132812 M 46.015625 28.988281 L 54.820312 28.988281 C 55.234375 28.988281 55.605469 28.667969 55.605469 28.210938 L 55.605469 20.445312 C 55.605469 20.035156 55.234375 19.667969 54.820312 19.667969 L 46.015625 19.667969 C 45.597656 19.667969 45.226562 19.988281 45.226562 20.445312 L 45.226562 28.210938 C 45.226562 28.621094 45.597656 28.988281 46.015625 28.988281 M 58.292969 51.230469 L 67.097656 51.230469 C 67.515625 51.230469 67.886719 50.910156 67.886719 50.457031 L 67.886719 42.691406 C 67.886719 42.277344 67.5625 41.914062 67.097656 41.914062 L 58.292969 41.914062 C 57.878906 41.914062 57.507812 42.234375 57.507812 42.691406 L 57.507812 50.457031 C 57.554688 50.910156 57.878906 51.230469 58.292969 51.230469 "/>
</g>
</svg>
