<?xml version="1.0" encoding="UTF-8"?>
<svg xmlns="http://www.w3.org/2000/svg" xmlns:xlink="http://www.w3.org/1999/xlink" width="100px" height="100px" viewBox="0 0 100 42" version="1.1">
<g id="surface1">
<path style=" stroke:none;fill-rule:nonzero;fill:rgb(18.431373%,15.294118%,2.745098%);fill-opacity:1;" d="M 59.757812 14.46875 C 57.574219 14.46875 55.945312 15.535156 55.945312 18.109375 C 55.945312 20.042969 57.019531 21.390625 59.640625 21.390625 C 61.867188 21.390625 63.375 20.085938 63.375 18.027344 C 63.375 15.695312 62.023438 14.46875 59.757812 14.46875 Z M 55.386719 32.625 C 54.871094 33.253906 54.355469 33.925781 54.355469 34.71875 C 54.355469 36.300781 56.382812 36.777344 59.164062 36.777344 C 61.46875 36.777344 64.609375 36.617188 64.609375 34.484375 C 64.609375 33.214844 63.097656 33.136719 61.1875 33.019531 Z M 67.152344 14.585938 C 67.867188 15.496094 68.621094 16.761719 68.621094 18.582031 C 68.621094 22.972656 65.164062 25.542969 60.15625 25.542969 C 58.886719 25.542969 57.734375 25.386719 57.019531 25.1875 L 55.707031 27.28125 L 59.601562 27.519531 C 66.476562 27.957031 70.527344 28.15625 70.527344 33.414062 C 70.527344 37.960938 66.515625 40.53125 59.601562 40.53125 C 52.40625 40.53125 49.664062 38.710938 49.664062 35.589844 C 49.664062 33.808594 50.460938 32.859375 51.851562 31.554688 C 50.539062 31 50.101562 30.011719 50.101562 28.945312 C 50.101562 28.074219 50.539062 27.285156 51.257812 26.53125 C 51.972656 25.78125 52.765625 25.027344 53.71875 24.160156 C 51.773438 23.210938 50.300781 21.152344 50.300781 18.226562 C 50.300781 13.675781 53.320312 10.554688 59.402344 10.554688 C 61.109375 10.554688 62.144531 10.710938 63.058594 10.949219 L 70.808594 10.949219 L 70.808594 14.308594 Z M 77.800781 7.398438 C 75.535156 7.398438 74.222656 6.09375 74.222656 3.839844 C 74.222656 1.585938 75.53125 0.359375 77.800781 0.359375 C 80.105469 0.359375 81.414062 1.585938 81.414062 3.839844 C 81.414062 6.09375 80.105469 7.398438 77.800781 7.398438 Z M 72.671875 31.167969 L 72.671875 28.046875 L 74.699219 27.769531 C 75.257812 27.691406 75.335938 27.570312 75.335938 26.976562 L 75.335938 15.347656 C 75.335938 14.914062 75.214844 14.636719 74.816406 14.519531 L 72.671875 13.765625 L 73.109375 10.5625 L 81.335938 10.5625 L 81.335938 26.976562 C 81.335938 27.609375 81.375 27.691406 81.972656 27.769531 L 84 28.046875 L 84 31.167969 Z M 99.714844 29.636719 C 98.003906 30.464844 95.5 31.214844 93.234375 31.214844 C 88.507812 31.214844 86.71875 29.320312 86.71875 24.847656 L 86.71875 14.488281 C 86.71875 14.25 86.71875 14.09375 86.398438 14.09375 L 83.617188 14.09375 L 83.617188 10.570312 C 87.117188 10.175781 88.507812 8.433594 88.941406 4.121094 L 92.71875 4.121094 L 92.71875 9.742188 C 92.71875 10.015625 92.71875 10.136719 93.039062 10.136719 L 98.640625 10.136719 L 98.640625 14.089844 L 92.71875 14.089844 L 92.71875 23.542969 C 92.71875 25.875 93.277344 26.785156 95.421875 26.785156 C 96.535156 26.785156 97.6875 26.507812 98.640625 26.152344 L 99.714844 29.632812 "/>
<path style=" stroke:none;fill-rule:nonzero;fill:rgb(87.058824%,29.803923%,21.176471%);fill-opacity:1;" d="M 40.832031 19.257812 L 22.660156 1.171875 C 21.613281 0.132812 19.917969 0.132812 18.871094 1.171875 L 15.097656 4.929688 L 19.882812 9.691406 C 21.03125 9.304688 22.300781 9.597656 23.160156 10.449219 C 24.019531 11.308594 24.3125 12.582031 23.914062 13.730469 L 28.527344 18.320312 C 29.644531 17.9375 30.929688 18.1875 31.820312 19.074219 C 33.066406 20.3125 33.066406 22.324219 31.820312 23.5625 C 30.746094 24.632812 29.0625 24.800781 27.796875 23.960938 C 26.53125 23.121094 26.039062 21.507812 26.617188 20.109375 L 22.316406 15.828125 L 22.316406 27.097656 C 22.628906 27.25 22.914062 27.453125 23.160156 27.695312 C 24.40625 28.9375 24.40625 30.945312 23.160156 32.183594 C 21.914062 33.425781 19.894531 33.425781 18.648438 32.183594 C 17.894531 31.433594 17.566406 30.359375 17.777344 29.316406 C 17.988281 28.273438 18.707031 27.40625 19.691406 27.003906 L 19.691406 15.632812 C 19.300781 15.472656 18.945312 15.238281 18.648438 14.9375 C 17.707031 14 17.476562 12.625 17.960938 11.46875 L 13.242188 6.773438 L 0.785156 19.171875 C -0.261719 20.214844 -0.261719 21.902344 0.785156 22.945312 L 18.957031 41.027344 C 20.003906 42.070312 21.699219 42.070312 22.746094 41.027344 L 40.832031 23.03125 C 41.878906 21.988281 41.878906 20.296875 40.832031 19.257812 "/>
</g>
</svg>
