<?xml version="1.0" encoding="UTF-8"?>
<svg xmlns="http://www.w3.org/2000/svg" xmlns:xlink="http://www.w3.org/1999/xlink" width="100px" height="100px" viewBox="0 0 100 100" version="1.1">
<g id="surface1">
<rect x="0" y="0" width="100" height="100" style="fill:rgb(94.117647%,85.882354%,30.980393%);fill-opacity:1;stroke:none;"/>
<path style=" stroke:none;fill-rule:nonzero;fill:rgb(19.607843%,20%,18.82353%);fill-opacity:1;" d="M 91.816406 76.148438 C 91.082031 71.585938 88.109375 67.757812 79.296875 64.183594 C 76.234375 62.777344 72.824219 61.769531 71.804688 59.449219 C 71.445312 58.097656 71.398438 57.339844 71.625 56.519531 C 72.28125 53.867188 75.445312 53.042969 77.957031 53.800781 C 79.570312 54.34375 81.101562 55.589844 82.023438 57.574219 C 86.339844 54.78125 86.332031 54.800781 89.34375 52.878906 C 88.242188 51.167969 87.652344 50.378906 86.929688 49.648438 C 84.335938 46.75 80.796875 45.257812 75.144531 45.371094 C 74.164062 45.496094 73.175781 45.628906 72.195312 45.75 C 69.371094 46.464844 66.683594 47.945312 65.105469 49.933594 C 60.371094 55.304688 61.71875 64.707031 67.480469 68.574219 C 73.15625 72.832031 81.492188 73.800781 82.558594 77.785156 C 83.59375 82.660156 78.972656 84.238281 74.382812 83.679688 C 71 82.976562 69.117188 81.253906 67.082031 78.128906 C 63.335938 80.292969 63.335938 80.292969 59.488281 82.507812 C 60.398438 84.503906 61.359375 85.410156 62.890625 87.140625 C 70.132812 94.488281 88.261719 94.125 91.511719 83.003906 C 91.644531 82.625 92.519531 80.074219 91.816406 76.148438 Z M 54.363281 45.960938 L 45.007812 45.960938 C 45.007812 54.039062 44.972656 62.0625 44.972656 70.144531 C 44.972656 75.285156 45.238281 80 44.402344 81.445312 C 43.03125 84.285156 39.488281 83.933594 37.871094 83.382812 C 36.226562 82.574219 35.390625 81.425781 34.421875 79.800781 C 34.152344 79.335938 33.953125 78.972656 33.886719 78.945312 C 31.351562 80.496094 28.820312 82.054688 26.285156 83.601562 C 27.546875 86.199219 29.410156 88.449219 31.796875 89.914062 C 35.359375 92.054688 40.152344 92.710938 45.160156 91.558594 C 48.421875 90.609375 51.234375 88.640625 52.710938 85.644531 C 54.839844 81.71875 54.382812 76.96875 54.363281 71.710938 C 54.410156 63.136719 54.363281 54.5625 54.363281 45.960938 Z M 54.363281 45.960938 "/>
</g>
</svg>
