<?xml version="1.0" encoding="UTF-8"?>
<svg xmlns="http://www.w3.org/2000/svg" xmlns:xlink="http://www.w3.org/1999/xlink" width="100px" height="100px" viewBox="0 0 100 102" version="1.1">
<g id="surface1">
<path style=" stroke:none;fill-rule:nonzero;fill:rgb(0%,32.941177%,41.960785%);fill-opacity:1;" d="M 92.21875 79.109375 C 86.855469 78.976562 82.695312 79.511719 79.207031 80.980469 C 78.203125 81.382812 76.59375 81.382812 76.457031 82.652344 C 76.996094 83.1875 77.0625 84.058594 77.53125 84.792969 C 78.335938 86.128906 79.746094 87.933594 81.019531 88.871094 C 82.425781 89.941406 83.835938 91.011719 85.3125 91.945312 C 87.925781 93.550781 90.878906 94.484375 93.425781 96.089844 C 94.902344 97.027344 96.378906 98.230469 97.855469 99.234375 C 98.589844 99.765625 99.058594 100.636719 100 100.96875 L 100 100.769531 C 99.53125 100.167969 99.394531 99.300781 98.925781 98.632812 C 98.257812 97.960938 97.585938 97.359375 96.914062 96.691406 C 94.96875 94.085938 92.554688 91.8125 89.941406 89.941406 C 87.792969 88.46875 83.097656 86.464844 82.226562 83.992188 C 82.226562 83.992188 82.160156 83.925781 82.09375 83.855469 C 83.566406 83.722656 85.3125 83.1875 86.71875 82.789062 C 89 82.183594 91.078125 82.320312 93.425781 81.71875 C 94.5 81.449219 95.574219 81.117188 96.644531 80.78125 L 96.644531 80.179688 C 95.441406 78.976562 94.566406 77.371094 93.292969 76.234375 C 89.871094 73.292969 86.117188 70.417969 82.226562 68.011719 C 80.148438 66.675781 77.464844 65.808594 75.25 64.671875 C 74.445312 64.269531 73.105469 64.070312 72.636719 63.402344 C 71.429688 61.929688 70.757812 59.992188 69.886719 58.253906 C 67.941406 54.574219 66.0625 50.5 64.386719 46.621094 C 63.179688 44.015625 62.441406 41.40625 60.964844 39 C 54.058594 27.636719 46.546875 20.75 35.011719 13.996094 C 32.527344 12.59375 29.578125 11.992188 26.425781 11.257812 C 24.75 11.191406 23.070312 11.058594 21.394531 10.988281 C 20.320312 10.523438 19.25 9.25 18.308594 8.648438 C 14.488281 6.242188 4.628906 1.03125 1.8125 7.914062 C 0 12.261719 4.492188 16.539062 6.035156 18.746094 C 7.175781 20.28125 8.652344 22.019531 9.457031 23.757812 C 9.925781 24.894531 10.058594 26.097656 10.53125 27.300781 C 11.601562 30.242188 12.609375 33.519531 14.019531 36.257812 C 14.753906 37.664062 15.558594 39.132812 16.5 40.402344 C 17.035156 41.140625 17.972656 41.472656 18.175781 42.675781 C 17.238281 44.015625 17.171875 46.019531 16.632812 47.691406 C 14.21875 55.246094 15.15625 64.605469 18.578125 70.152344 C 19.652344 71.824219 22.199219 75.5 25.621094 74.097656 C 28.640625 72.894531 27.96875 69.082031 28.839844 65.742188 C 29.042969 64.9375 28.90625 64.402344 29.308594 63.867188 L 29.308594 64.003906 C 30.25 65.875 31.1875 67.679688 32.058594 69.550781 C 34.136719 72.828125 37.757812 76.234375 40.777344 78.507812 C 42.386719 79.710938 43.660156 81.785156 45.675781 82.519531 L 45.675781 82.320312 L 45.539062 82.320312 C 45.136719 81.71875 44.535156 81.449219 43.996094 80.980469 C 42.789062 79.777344 41.449219 78.308594 40.511719 76.972656 C 37.695312 73.226562 35.210938 69.082031 33 64.804688 C 31.925781 62.730469 30.984375 60.460938 30.113281 58.386719 C 29.710938 57.582031 29.710938 56.382812 29.039062 55.980469 C 28.035156 57.449219 26.558594 58.722656 25.820312 60.527344 C 24.546875 63.402344 24.414062 66.945312 23.945312 70.621094 C 23.675781 70.6875 23.808594 70.621094 23.675781 70.753906 C 21.53125 70.21875 20.792969 68.011719 19.988281 66.140625 C 17.972656 61.394531 17.640625 53.773438 19.382812 48.292969 C 19.851562 46.886719 21.863281 42.476562 21.058594 41.140625 C 20.65625 39.871094 19.316406 39.132812 18.578125 38.132812 C 17.707031 36.859375 16.765625 35.257812 16.164062 33.851562 C 14.554688 30.109375 13.75 25.964844 12.003906 22.222656 C 11.199219 20.484375 9.792969 18.679688 8.652344 17.074219 C 7.378906 15.269531 5.96875 13.996094 4.964844 11.859375 C 4.628906 11.125 4.160156 9.921875 4.695312 9.117188 C 4.828125 8.582031 5.097656 8.382812 5.632812 8.25 C 6.507812 7.511719 8.988281 8.449219 9.859375 8.851562 C 12.339844 9.851562 14.417969 10.789062 16.5 12.191406 C 17.4375 12.863281 18.445312 14.132812 19.652344 14.464844 L 21.058594 14.464844 C 23.207031 14.933594 25.621094 14.601562 27.632812 15.203125 C 31.1875 16.335938 34.40625 18.007812 37.289062 19.8125 C 46.078125 25.363281 53.320312 33.25 58.214844 42.675781 C 59.019531 44.214844 59.355469 45.617188 60.09375 47.222656 C 61.503906 50.5 63.246094 53.839844 64.652344 57.050781 C 66.0625 60.191406 67.402344 63.402344 69.417969 66.007812 C 70.421875 67.410156 74.445312 68.148438 76.257812 68.882812 C 77.597656 69.484375 79.679688 70.019531 80.886719 70.753906 C 83.164062 72.15625 85.445312 73.761719 87.59375 75.300781 C 88.664062 76.101562 92.019531 77.773438 92.21875 79.109375 Z M 92.21875 79.109375 "/>
<path style=" stroke:none;fill-rule:nonzero;fill:rgb(0%,32.941177%,41.960785%);fill-opacity:1;" d="M 23.808594 21.015625 C 22.667969 21.015625 21.863281 21.152344 21.058594 21.351562 L 21.058594 21.484375 L 21.195312 21.484375 C 21.730469 22.554688 22.667969 23.289062 23.339844 24.226562 C 23.875 25.296875 24.34375 26.367188 24.882812 27.433594 C 24.949219 27.367188 25.015625 27.300781 25.015625 27.300781 C 25.957031 26.632812 26.425781 25.5625 26.425781 23.957031 C 26.023438 23.492188 25.957031 23.023438 25.621094 22.554688 C 25.21875 21.886719 24.34375 21.550781 23.808594 21.015625 Z M 23.808594 21.015625 "/>
</g>
</svg>
