<?xml version="1.0" encoding="UTF-8"?>
<svg xmlns="http://www.w3.org/2000/svg" xmlns:xlink="http://www.w3.org/1999/xlink" width="100px" height="100px" viewBox="0 0 100 100" version="1.1">
<g id="surface1">
<path style=" stroke:none;fill-rule:nonzero;fill:rgb(100%,42.352942%,21.568628%);fill-opacity:1;" d="M 86.785156 25.429688 C 73.5625 8.308594 48.96875 5.152344 31.851562 18.371094 C 14.730469 31.59375 11.574219 56.191406 24.796875 73.308594 C 38.023438 90.425781 62.617188 93.578125 79.734375 80.351562 C 96.84375 67.132812 100 42.542969 86.78125 25.429688 Z M 86.785156 25.429688 "/>
<path style=" stroke:none;fill-rule:nonzero;fill:rgb(100%,100%,100%);fill-opacity:1;" d="M 68.996094 35.15625 L 52.484375 51.800781 L 47.820312 47.003906 C 64.070312 30.75 65.703125 32.21875 69 35.15625 Z M 68.996094 35.15625 "/>
<path style=" stroke:none;fill-rule:nonzero;fill:rgb(100%,42.352942%,21.568628%);fill-opacity:1;" d="M 52.484375 52.253906 C 52.339844 52.25 52.199219 52.195312 52.09375 52.09375 L 47.394531 47.394531 C 47.175781 47.164062 47.175781 46.804688 47.394531 46.578125 C 63.417969 30.554688 65.605469 31.304688 69.390625 34.730469 C 69.519531 34.832031 69.589844 34.992188 69.585938 35.15625 C 69.609375 35.3125 69.546875 35.476562 69.421875 35.578125 L 52.910156 52.09375 C 52.792969 52.199219 52.640625 52.257812 52.484375 52.257812 Z M 48.632812 47 L 52.484375 50.851562 L 68.148438 35.1875 C 67.03125 33.785156 65.035156 33.445312 63.515625 34.40625 C 60.675781 35.675781 56.105469 39.5625 48.632812 47 Z M 48.632812 47 "/>
<path style=" stroke:none;fill-rule:nonzero;fill:rgb(100%,100%,100%);fill-opacity:1;" d="M 57.21875 56.402344 L 52.714844 51.800781 L 69.226562 35.480469 C 73.664062 39.824219 67.074219 47.066406 57.21875 56.398438 Z M 57.21875 56.402344 "/>
<path style=" stroke:none;fill-rule:nonzero;fill:rgb(100%,42.352942%,21.568628%);fill-opacity:1;" d="M 57.21875 56.988281 C 57.074219 56.976562 56.9375 56.921875 56.824219 56.824219 L 52.222656 52.324219 C 52.15625 52.15625 52.15625 51.96875 52.222656 51.800781 C 52.175781 51.664062 52.175781 51.511719 52.222656 51.375 L 68.738281 34.863281 C 68.976562 34.636719 69.347656 34.636719 69.585938 34.863281 C 70.667969 35.859375 71.261719 37.277344 71.214844 38.746094 C 71.214844 43.152344 66.191406 48.699219 57.640625 56.792969 C 57.527344 56.90625 57.375 56.976562 57.214844 56.988281 Z M 53.5625 51.800781 L 57.25 55.484375 C 63.777344 49.316406 70.007812 42.953125 70.042969 38.644531 C 70.078125 37.734375 69.773438 36.839844 69.191406 36.132812 Z M 53.5625 51.800781 "/>
<path style=" stroke:none;fill-rule:nonzero;fill:rgb(100%,100%,100%);fill-opacity:1;" d="M 47.949219 47.101562 L 51.210938 50.363281 L 44.324219 52.125 C 44.039062 52.1875 43.75 52.050781 43.613281 51.792969 C 43.476562 51.535156 43.527344 51.21875 43.738281 51.015625 L 47.753906 47.035156 C 47.753906 47.035156 47.882812 47.035156 47.949219 47.101562 Z M 47.949219 47.101562 "/>
<path style=" stroke:none;fill-rule:nonzero;fill:rgb(100%,42.352942%,21.568628%);fill-opacity:1;" d="M 44.164062 52.777344 C 43.71875 52.773438 43.3125 52.539062 43.085938 52.160156 C 42.828125 51.671875 42.921875 51.074219 43.316406 50.691406 L 47.296875 46.675781 C 47.59375 46.410156 48.042969 46.410156 48.339844 46.675781 L 51.605469 49.941406 C 51.796875 50.125 51.871094 50.402344 51.800781 50.65625 C 51.726562 50.914062 51.511719 51.121094 51.246094 51.179688 L 44.359375 52.648438 Z M 47.820312 47.820312 L 44.132812 51.507812 L 50.234375 50.199219 Z M 48.113281 47.523438 Z M 48.113281 47.523438 "/>
<path style=" stroke:none;fill-rule:nonzero;fill:rgb(100%,100%,100%);fill-opacity:1;" d="M 77.777344 25.984375 C 75.414062 23.707031 71.703125 23.609375 69.226562 25.761719 C 66.75 27.910156 66.328125 31.601562 68.257812 34.257812 C 70.183594 36.914062 73.820312 37.65625 76.636719 35.972656 L 72.195312 31.53125 Z M 77.777344 25.984375 "/>
<path style=" stroke:none;fill-rule:nonzero;fill:rgb(100%,42.352942%,21.568628%);fill-opacity:1;" d="M 73.371094 37.472656 C 70.597656 37.4375 68.113281 35.746094 67.0625 33.179688 C 66.011719 30.613281 66.589844 27.667969 68.53125 25.691406 C 71.25 23.023438 75.601562 23.023438 78.320312 25.691406 C 78.445312 25.796875 78.515625 25.953125 78.515625 26.117188 C 78.515625 26.277344 78.445312 26.433594 78.320312 26.539062 L 73.035156 31.535156 L 77.046875 35.484375 C 77.179688 35.609375 77.242188 35.792969 77.210938 35.972656 C 77.191406 36.144531 77.09375 36.300781 76.949219 36.398438 C 75.871094 37.070312 74.632812 37.441406 73.359375 37.472656 Z M 73.371094 24.808594 C 71.046875 24.820312 68.964844 26.21875 68.09375 28.359375 C 67.21875 30.496094 67.695312 32.957031 69.324219 34.597656 C 70.984375 36.269531 73.5 36.75 75.65625 35.808594 L 71.804688 31.957031 C 71.679688 31.855469 71.609375 31.707031 71.609375 31.546875 C 71.609375 31.390625 71.679688 31.238281 71.804688 31.140625 L 76.894531 26.015625 C 75.882812 25.238281 74.644531 24.816406 73.371094 24.808594 Z M 73.371094 24.808594 "/>
<path style=" stroke:none;fill-rule:nonzero;fill:rgb(100%,100%,100%);fill-opacity:1;" d="M 77.875 26.082031 L 72.292969 31.628906 L 76.734375 36.070312 C 77.179688 35.8125 77.597656 35.507812 77.972656 35.15625 C 80.390625 32.597656 80.347656 28.585938 77.875 26.082031 Z M 77.875 26.082031 "/>
<path style=" stroke:none;fill-rule:nonzero;fill:rgb(100%,42.352942%,21.568628%);fill-opacity:1;" d="M 76.632812 36.558594 C 76.484375 36.566406 76.339844 36.507812 76.242188 36.394531 L 71.804688 31.957031 C 71.679688 31.859375 71.609375 31.707031 71.609375 31.550781 C 71.609375 31.390625 71.679688 31.238281 71.804688 31.140625 L 77.351562 25.691406 C 77.460938 25.527344 77.644531 25.429688 77.839844 25.429688 C 78.039062 25.429688 78.222656 25.527344 78.332031 25.691406 C 79.644531 26.980469 80.386719 28.746094 80.386719 30.585938 C 80.386719 32.429688 79.644531 34.191406 78.332031 35.480469 C 77.945312 35.890625 77.507812 36.242188 77.023438 36.527344 C 76.902344 36.585938 76.761719 36.597656 76.632812 36.558594 Z M 73.042969 31.535156 L 76.730469 35.222656 C 76.984375 35.042969 77.226562 34.847656 77.449219 34.632812 C 78.535156 33.550781 79.144531 32.085938 79.148438 30.554688 C 79.148438 29.183594 78.652344 27.859375 77.742188 26.835938 Z M 73.042969 31.535156 "/>
<path style=" stroke:none;fill-rule:nonzero;fill:rgb(100%,100%,100%);fill-opacity:1;" d="M 69.683594 35.839844 C 68.765625 34.980469 67.335938 34.980469 66.417969 35.839844 L 51.636719 50.589844 L 54.085938 53.070312 L 69.714844 39.363281 C 70.199219 38.902344 70.46875 38.261719 70.460938 37.59375 C 70.453125 36.929688 70.171875 36.292969 69.683594 35.839844 Z M 69.683594 35.839844 "/>
<path style=" stroke:none;fill-rule:nonzero;fill:rgb(100%,42.352942%,21.568628%);fill-opacity:1;" d="M 53.953125 53.660156 C 53.808594 53.65625 53.667969 53.597656 53.5625 53.496094 L 51.082031 51.015625 C 50.859375 50.789062 50.859375 50.429688 51.082031 50.199219 L 65.863281 35.480469 C 66.734375 34.613281 68.050781 34.359375 69.179688 34.851562 C 70.308594 35.339844 71.027344 36.46875 70.988281 37.699219 C 70.953125 38.523438 70.589844 39.300781 69.976562 39.855469 L 54.34375 53.5625 C 54.230469 53.640625 54.089844 53.675781 53.953125 53.660156 Z M 52.222656 50.589844 L 53.855469 52.253906 L 69.191406 38.90625 C 69.574219 38.578125 69.800781 38.105469 69.8125 37.601562 C 69.828125 37.097656 69.628906 36.605469 69.257812 36.265625 C 68.546875 35.554688 67.394531 35.554688 66.679688 36.265625 Z M 52.222656 50.589844 "/>
<path style=" stroke:none;fill-rule:nonzero;fill:rgb(100%,100%,100%);fill-opacity:1;" d="M 40.183594 67.398438 L 40.835938 70.628906 C 40.886719 70.972656 40.726562 71.3125 40.429688 71.484375 C 40.128906 71.660156 39.753906 71.621094 39.496094 71.390625 L 35.023438 67.082031 L 48.960938 53.039062 L 53.789062 53.039062 L 57.054688 56.300781 C 51.964844 60.753906 46.285156 64.488281 40.183594 67.398438 Z M 40.183594 67.398438 "/>
<path style=" stroke:none;fill-rule:nonzero;fill:rgb(100%,42.352942%,21.568628%);fill-opacity:1;" d="M 39.886719 72.195312 C 39.519531 72.1875 39.152344 72.035156 38.910156 71.769531 L 34.632812 67.496094 C 34.511719 67.398438 34.4375 67.246094 34.4375 67.089844 C 34.4375 66.929688 34.511719 66.777344 34.632812 66.679688 L 48.667969 52.613281 L 53.824219 52.453125 C 53.949219 52.40625 54.085938 52.40625 54.214844 52.453125 L 57.476562 55.714844 C 57.605469 55.832031 57.664062 56.003906 57.640625 56.171875 C 57.644531 56.335938 57.574219 56.492188 57.445312 56.597656 L 57.183594 56.824219 C 52.070312 61.085938 46.449219 64.695312 40.441406 67.5625 L 41.0625 70.207031 C 41.160156 70.617188 41.066406 71.054688 40.804688 71.390625 C 40.546875 71.726562 40.148438 71.925781 39.726562 71.933594 Z M 35.90625 67.070312 L 39.757812 70.953125 L 39.367188 67.886719 C 39.257812 67.464844 39.464844 67.03125 39.855469 66.84375 C 45.699219 64.011719 51.179688 60.484375 56.171875 56.335938 L 53.496094 53.65625 L 49.121094 53.65625 Z M 40.605469 67.660156 Z M 40.605469 67.660156 "/>
<path style=" stroke:none;fill-rule:nonzero;fill:rgb(100%,100%,100%);fill-opacity:1;" d="M 31.664062 70.433594 L 34.929688 67.167969 L 39.953125 72.195312 L 31.960938 71.640625 C 31.675781 71.621094 31.441406 71.417969 31.375 71.144531 C 31.308594 70.871094 31.425781 70.582031 31.664062 70.433594 Z M 31.664062 70.433594 "/>
<path style=" stroke:none;fill-rule:nonzero;fill:rgb(100%,42.352942%,21.568628%);fill-opacity:1;" d="M 40.050781 72.683594 L 32.085938 72.128906 C 31.617188 72.085938 31.210938 71.761719 31.042969 71.332031 C 30.875 70.898438 30.976562 70.386719 31.304688 70.042969 L 34.566406 66.777344 C 34.796875 66.558594 35.15625 66.558594 35.382812 66.777344 L 40.378906 71.769531 C 40.519531 71.964844 40.519531 72.230469 40.378906 72.421875 C 40.300781 72.546875 40.1875 72.636719 40.050781 72.683594 Z M 32.085938 70.859375 L 38.613281 71.28125 L 35.023438 67.921875 Z M 32.085938 70.859375 "/>
<path style=" stroke:none;fill-rule:nonzero;fill:rgb(100%,100%,100%);fill-opacity:1;" d="M 54.246094 53.433594 L 47.65625 54.445312 L 51.472656 50.660156 Z M 54.246094 53.433594 "/>
<path style=" stroke:none;fill-rule:nonzero;fill:rgb(100%,42.352942%,21.568628%);fill-opacity:1;" d="M 47.65625 55.0625 C 47.429688 55.066406 47.226562 54.941406 47.132812 54.734375 C 46.988281 54.542969 46.988281 54.277344 47.132812 54.082031 L 50.917969 50.265625 C 51.15625 50.042969 51.527344 50.042969 51.765625 50.265625 L 54.539062 53.039062 C 54.652344 53.21875 54.652344 53.445312 54.539062 53.625 C 54.484375 53.84375 54.304688 54.011719 54.085938 54.050781 L 47.558594 55.0625 Z M 51.472656 51.503906 L 49.351562 53.625 L 53.007812 53.070312 Z M 51.472656 51.503906 "/>
<path style=" stroke:none;fill-rule:nonzero;fill:rgb(100%,100%,100%);fill-opacity:1;" d="M 54.246094 53.429688 L 49.644531 54.015625 C 49.394531 54.074219 49.132812 53.960938 49.003906 53.734375 C 48.875 53.507812 48.910156 53.226562 49.089844 53.039062 L 51.472656 50.65625 Z M 54.246094 53.429688 "/>
<path style=" stroke:none;fill-rule:nonzero;fill:rgb(100%,42.352942%,21.568628%);fill-opacity:1;" d="M 49.515625 54.640625 C 49.082031 54.636719 48.683594 54.398438 48.472656 54.019531 C 48.214844 53.558594 48.292969 52.984375 48.667969 52.613281 L 51.050781 50.230469 C 51.289062 50.007812 51.660156 50.007812 51.898438 50.230469 L 54.671875 53.007812 C 54.839844 53.167969 54.898438 53.410156 54.820312 53.628906 C 54.742188 53.847656 54.542969 54 54.3125 54.019531 L 49.746094 54.605469 Z M 49.515625 53.429688 L 52.972656 53.007812 L 51.441406 51.472656 L 49.484375 53.429688 Z M 77.90625 29.835938 C 77.78125 29.625 77.511719 29.539062 77.285156 29.640625 C 77.320312 30.742188 77.253906 31.3125 76.925781 31.730469 C 77.34375 32.386719 77.507812 32.335938 77.613281 32.21875 C 78.160156 31.546875 78.277344 30.621094 77.90625 29.835938 Z M 77.90625 29.835938 "/>
</g>
</svg>
